<?xml version="1.0" encoding="UTF-8"?>
<svg xmlns="http://www.w3.org/2000/svg" viewBox="0 0 144.24 194.45">
  <path fill="#380067" fill-rule="evenodd" d="M17.89,7.87v16.21s16.2,0,16.2,0v-2.7h3.22l4.58,8.76h-1.39c-10.79,0-20.71,6.01-25.7,15.58-4.49,8.59-4.33,18.8.22,27.21-3.59,3.09-6.75,6.82-9.24,11.14-7.97,13.8-7.44,30.26,0,43.19.37.62.87,1.15,1.45,1.57-2.98,6.38-1.84,14.21,3.43,19.48l24.36-24.36c-5.51-5.51-13.84-6.5-20.37-2.97-5.1-9.54-5.33-21.41.49-31.5,1.65-2.86,3.66-5.36,5.95-7.49,9.17,13.16,19,27.27,27.24,39.09,5.42,7.78,14.31,12.42,23.79,12.42s18.37-4.64,23.79-12.42c8.24-11.82,18.07-25.93,27.24-39.09,2.29,2.13,4.3,4.63,5.95,7.49,5.83,10.09,5.6,21.96.5,31.5-6.53-3.53-14.86-2.54-20.37,2.97l24.36,24.36c5.26-5.26,6.4-13.09,3.43-19.47.58-.42,1.08-.96,1.45-1.58,7.44-12.92,7.96-29.39,0-43.19-2.49-4.32-5.64-8.05-9.24-11.14,4.55-8.41,4.7-18.62.22-27.21-4.99-9.56-14.91-15.58-25.7-15.58h-1.38l4.58-8.76h3.22v2.7h16.21V7.87h-16.21v2.7h-6.49c-2.01,0-3.86,1.12-4.79,2.9l-8.72,16.67h-36.07l-8.72-16.67c-.93-1.78-2.78-2.9-4.79-2.9h-6.49v-2.7h-16.21ZM40.51,41.96h63.22c6.41,0,12.26,3.55,15.23,9.23,2.97,5.68,2.53,12.51-1.13,17.77-5.77,8.28-11.65,16.72-17.68,25.38h-56.04c-6.03-8.65-11.91-17.09-17.68-25.38-3.66-5.26-4.1-12.09-1.13-17.77,2.97-5.68,8.82-9.23,15.23-9.23ZM56.04,56.43c-2.66,0-5.22,1.09-7.1,3.04-1.88,1.95-2.94,4.58-2.94,7.33v7.88c0,2.75,1.06,5.39,2.94,7.34,1.88,1.95,4.43,3.04,7.1,3.04s5.22-1.09,7.1-3.04c1.88-1.95,2.94-4.58,2.94-7.34v-7.88c0-2.75-1.06-5.39-2.94-7.33-1.88-1.95-4.44-3.04-7.1-3.04h0ZM88.2,56.43c-2.66,0-5.22,1.09-7.1,3.04-1.88,1.95-2.94,4.58-2.94,7.33v7.88c0,2.75,1.06,5.39,2.94,7.34,1.88,1.95,4.44,3.04,7.1,3.04s5.22-1.09,7.1-3.04c1.88-1.95,2.94-4.58,2.94-7.34v-7.88c0-2.75-1.06-5.39-2.94-7.33-1.88-1.95-4.44-3.04-7.1-3.04ZM72.12,99.13c2.87,0,5.24,2.36,5.24,5.24s-2.36,5.24-5.24,5.24-5.24-2.36-5.24-5.24,2.36-5.24,5.24-5.24ZM66.21,143.63v3.84c-10.24,2.66-17.89,12.03-17.89,23.05,0,13.06,10.74,23.8,23.8,23.8s23.8-10.74,23.8-23.8c0-11.02-7.65-20.39-17.89-23.05v-3.84h-11.82ZM66.21,163.75v4.7h11.82v-4.7c1.87,1.63,3.04,4.03,3.04,6.76,0,5.03-3.92,8.94-8.94,8.94s-8.94-3.92-8.94-8.94c0-2.74,1.17-5.14,3.04-6.76Z"/>
</svg>
