<?xml version="1.0" encoding="UTF-8"?>
<svg id="Layer_1" data-name="Layer 1" xmlns="http://www.w3.org/2000/svg" viewBox="0 0 923 250.66">
  <defs>
    <style>
      .cls-1 {
        fill: #380067;
        fill-rule: evenodd;
      }
    </style>
  </defs>
  <g id="robot-02_black" data-name="robot-02 black">
    <path id="robot-03_black1" data-name="robot-03 black1" class="cls-1" d="M17.89,7.87v16.21s16.2,0,16.2,0v-2.7h3.22l4.58,8.76h-1.39c-10.79,0-20.71,6.01-25.7,15.58-4.49,8.59-4.33,18.8.22,27.21-3.59,3.09-6.75,6.82-9.24,11.14-7.97,13.8-7.44,30.26,0,43.19.37.62.87,1.15,1.45,1.57-2.98,6.38-1.84,14.21,3.43,19.48l24.36-24.36c-5.51-5.51-13.84-6.5-20.37-2.97-5.1-9.54-5.33-21.41.49-31.5,1.65-2.86,3.66-5.36,5.95-7.49,9.17,13.16,19,27.27,27.24,39.09,5.42,7.78,14.31,12.42,23.79,12.42s18.37-4.64,23.79-12.42c8.24-11.82,18.07-25.93,27.24-39.09,2.29,2.13,4.3,4.63,5.95,7.49,5.83,10.09,5.6,21.96.5,31.5-6.53-3.53-14.86-2.54-20.37,2.97l24.36,24.36c5.26-5.26,6.4-13.09,3.43-19.47.58-.42,1.08-.96,1.45-1.58,7.44-12.92,7.96-29.39,0-43.19-2.49-4.32-5.64-8.05-9.24-11.14,4.55-8.41,4.7-18.62.22-27.21-4.99-9.56-14.91-15.58-25.7-15.58h-1.38l4.58-8.76h3.22v2.7h16.21V7.87h-16.21v2.7h-6.49c-2.01,0-3.86,1.12-4.79,2.9l-8.72,16.67h-36.07l-8.72-16.67c-.93-1.78-2.78-2.9-4.79-2.9h-6.49v-2.7h-16.21ZM40.51,41.96h63.22c6.41,0,12.26,3.55,15.23,9.23,2.97,5.68,2.53,12.51-1.13,17.77-5.77,8.28-11.65,16.72-17.68,25.38h-56.04c-6.03-8.65-11.91-17.09-17.68-25.38-3.66-5.26-4.1-12.09-1.13-17.77,2.97-5.68,8.82-9.23,15.23-9.23ZM56.04,56.43c-2.66,0-5.22,1.09-7.1,3.04-1.88,1.95-2.94,4.58-2.94,7.33v7.88c0,2.75,1.06,5.39,2.94,7.34,1.88,1.95,4.43,3.04,7.1,3.04s5.22-1.09,7.1-3.04c1.88-1.95,2.94-4.58,2.94-7.34v-7.88c0-2.75-1.06-5.39-2.94-7.33-1.88-1.95-4.44-3.04-7.1-3.04h0ZM88.2,56.43c-2.66,0-5.22,1.09-7.1,3.04-1.88,1.95-2.94,4.58-2.94,7.33v7.88c0,2.75,1.06,5.39,2.94,7.34,1.88,1.95,4.44,3.04,7.1,3.04s5.22-1.09,7.1-3.04c1.88-1.95,2.94-4.58,2.94-7.34v-7.88c0-2.75-1.06-5.39-2.94-7.33-1.88-1.95-4.44-3.04-7.1-3.04ZM72.12,99.13c2.87,0,5.24,2.36,5.24,5.24s-2.36,5.24-5.24,5.24-5.24-2.36-5.24-5.24,2.36-5.24,5.24-5.24ZM66.21,143.63v3.84c-10.24,2.66-17.89,12.03-17.89,23.05,0,13.06,10.74,23.8,23.8,23.8s23.8-10.74,23.8-23.8c0-11.02-7.65-20.39-17.89-23.05v-3.84h-11.82ZM66.21,163.75v4.7h11.82v-4.7c1.87,1.63,3.04,4.03,3.04,6.76,0,5.03-3.92,8.94-8.94,8.94s-8.94-3.92-8.94-8.94c0-2.74,1.17-5.14,3.04-6.76Z"/>
  </g>
  <g>
    <path d="M238.65,54.18c5.44,2.84,9.72,6.51,12.85,11.03v-13.72h24.48v96.9c0,8.91-1.8,16.87-5.38,23.88-3.59,7-8.97,12.56-16.15,16.67-7.18,4.11-15.86,6.16-26.05,6.16-13.66,0-24.86-3.18-33.6-9.55-8.74-6.37-13.69-15.05-14.85-26.05h24.14c1.27,4.4,4.02,7.9,8.25,10.51,4.22,2.6,9.35,3.91,15.37,3.91,7.06,0,12.79-2.11,17.19-6.34,4.4-4.23,6.6-10.62,6.6-19.19v-14.93c-3.13,4.51-7.44,8.28-12.94,11.29-5.5,3.01-11.78,4.51-18.84,4.51-8.1,0-15.51-2.08-22.23-6.25-6.72-4.17-12.01-10.04-15.89-17.63-3.88-7.58-5.82-16.29-5.82-26.13s1.94-18.35,5.82-25.87c3.88-7.52,9.14-13.31,15.8-17.37,6.66-4.05,14.09-6.08,22.31-6.08,7.18,0,13.49,1.42,18.93,4.25ZM248.03,84.39c-2.32-4.22-5.44-7.47-9.38-9.72-3.94-2.26-8.16-3.39-12.68-3.39s-8.68,1.1-12.5,3.3c-3.82,2.2-6.92,5.41-9.29,9.64-2.37,4.23-3.56,9.23-3.56,15.02s1.19,10.85,3.56,15.19c2.37,4.34,5.5,7.67,9.38,9.98,3.88,2.32,8.02,3.47,12.42,3.47s8.74-1.13,12.68-3.39c3.93-2.26,7.06-5.5,9.38-9.72,2.31-4.22,3.47-9.29,3.47-15.19s-1.16-10.97-3.47-15.19Z"/>
    <path d="M317.49,143.09c-7.41-4.11-13.23-9.92-17.45-17.45-4.23-7.52-6.34-16.21-6.34-26.05s2.17-18.52,6.51-26.05c4.34-7.52,10.27-13.34,17.8-17.45,7.52-4.11,15.92-6.16,25.18-6.16s17.65,2.06,25.18,6.16c7.52,4.11,13.46,9.93,17.8,17.45,4.34,7.53,6.51,16.21,6.51,26.05s-2.23,18.52-6.69,26.05c-4.46,7.53-10.48,13.34-18.06,17.45-7.58,4.11-16.06,6.16-25.44,6.16s-17.6-2.05-25.01-6.16ZM354.91,124.85c3.88-2.14,6.97-5.35,9.29-9.64,2.31-4.28,3.47-9.49,3.47-15.63,0-9.14-2.4-16.18-7.21-21.1-4.81-4.92-10.68-7.38-17.63-7.38s-12.76,2.46-17.45,7.38c-4.69,4.92-7.03,11.95-7.03,21.1s2.28,16.18,6.86,21.1c4.57,4.92,10.33,7.38,17.28,7.38,4.4,0,8.54-1.07,12.42-3.21Z"/>
    <path d="M467.18,54.18c5.44,2.84,9.72,6.51,12.85,11.03v-13.72h24.48v96.9c0,8.91-1.79,16.87-5.38,23.88-3.59,7-8.97,12.56-16.15,16.67-7.18,4.11-15.86,6.16-26.05,6.16-13.66,0-24.86-3.18-33.6-9.55-8.74-6.37-13.69-15.05-14.85-26.05h24.14c1.27,4.4,4.02,7.9,8.25,10.51,4.22,2.6,9.35,3.91,15.37,3.91,7.06,0,12.79-2.11,17.19-6.34,4.4-4.23,6.6-10.62,6.6-19.19v-14.93c-3.12,4.51-7.44,8.28-12.94,11.29-5.5,3.01-11.78,4.51-18.84,4.51-8.11,0-15.52-2.08-22.23-6.25-6.72-4.17-12.01-10.04-15.89-17.63-3.88-7.58-5.82-16.29-5.82-26.13s1.94-18.35,5.82-25.87c3.88-7.52,9.14-13.31,15.8-17.37,6.66-4.05,14.09-6.08,22.31-6.08,7.18,0,13.48,1.42,18.93,4.25ZM476.55,84.39c-2.32-4.22-5.44-7.47-9.38-9.72-3.94-2.26-8.16-3.39-12.68-3.39s-8.68,1.1-12.5,3.3c-3.82,2.2-6.92,5.41-9.29,9.64-2.37,4.23-3.56,9.23-3.56,15.02s1.19,10.85,3.56,15.19c2.37,4.34,5.5,7.67,9.38,9.98,3.88,2.32,8.01,3.47,12.42,3.47s8.74-1.13,12.68-3.39c3.93-2.26,7.06-5.5,9.38-9.72,2.31-4.22,3.47-9.29,3.47-15.19s-1.16-10.97-3.47-15.19Z"/>
    <path d="M546.01,143.09c-7.41-4.11-13.23-9.92-17.45-17.45-4.23-7.52-6.34-16.21-6.34-26.05s2.17-18.52,6.51-26.05c4.34-7.52,10.27-13.34,17.8-17.45,7.52-4.11,15.92-6.16,25.18-6.16s17.65,2.06,25.18,6.16c7.52,4.11,13.46,9.93,17.8,17.45,4.34,7.53,6.51,16.21,6.51,26.05s-2.23,18.52-6.69,26.05c-4.46,7.53-10.48,13.34-18.06,17.45-7.58,4.11-16.06,6.16-25.44,6.16s-17.6-2.05-25.01-6.16ZM583.43,124.85c3.88-2.14,6.97-5.35,9.29-9.64,2.31-4.28,3.47-9.49,3.47-15.63,0-9.14-2.4-16.18-7.21-21.1-4.8-4.92-10.68-7.38-17.62-7.38s-12.76,2.46-17.45,7.38c-4.69,4.92-7.03,11.95-7.03,21.1s2.28,16.18,6.86,21.1c4.57,4.92,10.33,7.38,17.28,7.38,4.4,0,8.54-1.07,12.42-3.21Z"/>
    <path d="M676.33,54.26c5.5-2.89,11.78-4.34,18.84-4.34,8.22,0,15.66,2.03,22.31,6.08,6.66,4.05,11.92,9.81,15.8,17.28,3.88,7.47,5.82,16.12,5.82,25.96s-1.94,18.55-5.82,26.13c-3.88,7.58-9.15,13.46-15.8,17.63-6.66,4.17-14.09,6.25-22.31,6.25-7.18,0-13.46-1.42-18.84-4.25-5.38-2.84-9.7-6.51-12.94-11.03v13.72h-24.31V19.19h24.31v46.36c3.13-4.63,7.44-8.39,12.94-11.29ZM710.72,84.22c-2.38-4.22-5.5-7.44-9.38-9.64-3.88-2.2-8.07-3.3-12.59-3.3s-8.54,1.13-12.42,3.39c-3.88,2.26-7.01,5.53-9.38,9.81-2.37,4.28-3.56,9.32-3.56,15.11s1.19,10.83,3.56,15.11c2.37,4.28,5.5,7.55,9.38,9.81,3.88,2.26,8.01,3.39,12.42,3.39s8.71-1.16,12.59-3.47c3.88-2.31,7-5.61,9.38-9.9,2.37-4.28,3.56-9.38,3.56-15.28s-1.19-10.79-3.56-15.02Z"/>
    <path d="M774.53,143.09c-7.41-4.11-13.23-9.92-17.45-17.45-4.23-7.52-6.34-16.21-6.34-26.05s2.17-18.52,6.51-26.05c4.34-7.52,10.27-13.34,17.8-17.45,7.52-4.11,15.92-6.16,25.18-6.16s17.65,2.06,25.18,6.16c7.52,4.11,13.46,9.93,17.8,17.45,4.34,7.53,6.51,16.21,6.51,26.05s-2.23,18.52-6.69,26.05c-4.46,7.53-10.48,13.34-18.06,17.45-7.58,4.11-16.06,6.16-25.44,6.16s-17.6-2.05-25.01-6.16ZM811.96,124.85c3.88-2.14,6.97-5.35,9.29-9.64,2.31-4.28,3.47-9.49,3.47-15.63,0-9.14-2.4-16.18-7.21-21.1-4.81-4.92-10.68-7.38-17.63-7.38s-12.76,2.46-17.45,7.38c-4.69,4.92-7.03,11.95-7.03,21.1s2.28,16.18,6.86,21.1c4.57,4.92,10.33,7.38,17.28,7.38,4.4,0,8.54-1.07,12.42-3.21Z"/>
    <path d="M895.91,71.46v46.54c0,3.24.78,5.59,2.34,7.03,1.56,1.45,4.2,2.17,7.9,2.17h11.29v20.49h-15.28c-20.49,0-30.74-9.96-30.74-29.87v-46.36h-11.46v-19.97h11.46v-23.79h24.49v23.79h21.53v19.97h-21.53Z"/>
  </g>
</svg>